HIERARCHY
ROOT Hips
{
 OFFSET 0.000000 0.000000 0.000000
 CHANNELS 6 Xposition Yposition Zposition Yrotation Xrotation Zrotation
 JOINT Chest
 {
  OFFSET 0.000000 9.585900 0.002600
  CHANNELS 3 Yrotation Xrotation Zrotation
  JOINT Chest2
  {
   OFFSET 0.000000 9.601200 -0.005300
   CHANNELS 3 Yrotation Xrotation Zrotation
   JOINT Chest3
   {
    OFFSET 0.000000 9.561800 0.000000
    CHANNELS 3 Yrotation Xrotation Zrotation
    JOINT Chest4
    {
     OFFSET 0.000000 9.552100 0.000000
     CHANNELS 3 Yrotation Xrotation Zrotation
     JOINT Neck
     {
      OFFSET 0.000000 14.453000 0.000000
      CHANNELS 3 Yrotation Xrotation Zrotation
      JOINT Head
      {
       OFFSET 0.000000 8.936500 -0.011300
       CHANNELS 3 Yrotation Xrotation Zrotation
       End Site
       {
        OFFSET 0.000000 17.073600 -0.006000
       }
      }
     }
     JOINT RightCollar
     {
      OFFSET -2.921100 9.558500 0.000000
      CHANNELS 3 Yrotation Xrotation Zrotation
      JOINT RightShoulder
      {
       OFFSET -13.519700 0.000000 0.000000
       CHANNELS 3 Yrotation Xrotation Zrotation
       JOINT RightElbow
       {
        OFFSET 0.000000 -29.696600 0.000000
        CHANNELS 3 Yrotation Xrotation Zrotation
        JOINT RightWrist
        {
         OFFSET 0.000000 -24.004700 0.000000
         CHANNELS 3 Yrotation Xrotation Zrotation
         End Site
         {
          OFFSET 0.000000 -17.728500 0.000000
         }
        }
       }
      }
     }
     JOINT LeftCollar
     {
      OFFSET 2.921100 9.558500 0.000000
      CHANNELS 3 Yrotation Xrotation Zrotation
      JOINT LeftShoulder
      {
       OFFSET 13.519700 0.000000 0.000000
       CHANNELS 3 Yrotation Xrotation Zrotation
       JOINT LeftElbow
       {
        OFFSET 0.000000 -29.696600 0.000000
        CHANNELS 3 Yrotation Xrotation Zrotation
        JOINT LeftWrist
        {
         OFFSET 0.000000 -24.004700 0.000000
         CHANNELS 3 Yrotation Xrotation Zrotation
         End Site
         {
          OFFSET 0.000000 -17.728500 0.000000
         }
        }
       }
      }
     }
    }
   }
  }
 }
 JOINT RightHip
 {
  OFFSET -7.771700 -0.012900 -0.001300
  CHANNELS 3 Yrotation Xrotation Zrotation
  JOINT RightKnee
  {
   OFFSET 0.000000 -40.869800 0.001200
   CHANNELS 3 Yrotation Xrotation Zrotation
   JOINT RightAnkle
   {
    OFFSET 0.000000 -39.717900 0.002100
    CHANNELS 3 Yrotation Xrotation Zrotation
    JOINT RightToe
    {
     OFFSET 0.000000 -4.965400 11.033500
     CHANNELS 3 Yrotation Xrotation Zrotation
     End Site
     {
      OFFSET 0.000000 -1.423100 5.872300
     }
    }
   }
  }
 }
 JOINT LeftHip
 {
  OFFSET 7.771700 -0.012900 -0.001300
  CHANNELS 3 Yrotation Xrotation Zrotation
  JOINT LeftKnee
  {
   OFFSET 0.000000 -40.869800 0.001200
   CHANNELS 3 Yrotation Xrotation Zrotation
   JOINT LeftAnkle
   {
    OFFSET 0.000000 -39.717900 0.002100
    CHANNELS 3 Yrotation Xrotation Zrotation
    JOINT LeftToe
    {
     OFFSET 0.000000 -4.965400 11.033500
     CHANNELS 3 Yrotation Xrotation Zrotation
     End Site
     {
      OFFSET 0.000000 -1.423100 5.872300
     }
    }
   }
  }
 }
}
MOTION
Frames: 11
Frame Time: 0.008333
-193.245094 57.779058 -62.237098 157.091692 -6.190664 0.048432 4.527831 4.718953 0.984466 0.161906 0.181979 0.007355 0.285366 0.320707 0.013233 4.073705 4.552055 0.339599 1.005661 18.724348 -1.020424 2.152286 -0.985858 -2.156431 0.973227 8.975725 0.501994 -6.232157 -7.759407 -5.348235 18.496468 -83.926861 -0.844141 -2.443090 5.809341 -27.510100 -4.207387 9.312325 -2.175853 17.335621 -4.131622 0.551564 54.026840 -77.270822 -80.621435 -0.398706 7.039071 16.494731 -16.938598 -65.059052 11.615679 -30.185819 72.022266 -30.044668 -3.096037 -6.476558 -2.460621 -0.131865 0.697965 -0.060525 -1.190177 -67.691435 20.093280 41.634256 66.620758 34.929031 -16.767174 -10.201754 2.979493 -0.304790 -0.841298 -0.135837
-193.243007 57.779716 -62.236005 157.087326 -6.191444 0.037716 4.549724 4.715797 0.979561 0.153147 0.182925 0.015192 0.285851 0.320385 0.012849 4.095472 4.547007 0.319588 0.989095 18.728753 -0.989460 2.149349 -0.987794 -2.161679 0.946862 8.978199 0.528701 -6.225757 -7.760474 -5.362154 18.553661 -83.924526 -0.894497 -2.453501 5.812497 -27.519168 -4.219472 9.325299 -2.150643 17.368730 -4.141498 0.535470 54.417358 -77.314700 -80.826420 -0.397311 7.039970 16.510088 -16.963788 -65.054330 11.652375 -30.192795 72.019512 -30.052221 -3.097962 -6.468570 -2.464559 -0.128210 0.690359 -0.059673 -1.201645 -67.692917 20.117271 41.625217 66.629994 34.923473 -16.760279 -10.224536 2.983864 -0.300413 -0.834438 -0.136894
-193.241840 57.780290 -62.235713 157.090122 -6.192990 0.034776 4.557508 4.717677 0.975648 0.151467 0.180161 0.014346 0.286574 0.320635 0.012381 4.101209 4.548281 0.314529 0.987097 18.725685 -0.985980 2.144353 -0.991675 -2.153434 0.933538 8.970794 0.530323 -6.207507 -7.758047 -5.391489 18.310442 -83.928157 -0.659747 -2.449196 5.813849 -27.519406 -4.200099 9.332229 -2.147440 17.459126 -4.160301 0.502507 54.646161 -77.376794 -80.949706 -0.392973 7.036324 16.525803 -16.976257 -65.051924 11.672719 -30.218730 72.014040 -30.084616 -3.104667 -6.462242 -2.461224 -0.111827 0.684347 -0.058212 -1.212922 -67.691825 20.128278 41.625436 66.636077 34.923127 -16.756148 -10.241759 2.986027 -0.298117 -0.834441 -0.136669
-193.241473 57.780675 -62.235431 157.088237 -6.190871 0.038051 4.570340 4.718085 0.966495 0.152390 0.179536 0.013051 0.286713 0.320560 0.012072 4.100414 4.545988 0.313041 0.992987 18.723074 -0.998572 2.132394 -0.997753 -2.134451 0.921092 8.963249 0.508847 -6.202494 -7.749436 -5.372642 18.246252 -83.928925 -0.597732 -2.436257 5.814690 -27.523960 -4.193869 9.333249 -2.140902 17.566882 -4.170704 0.471615 54.892102 -77.443639 -81.093922 -0.389469 7.031205 16.546003 -16.969736 -65.054383 11.671807 -30.231565 72.009447 -30.098775 -3.102247 -6.459986 -2.457712 -0.114736 0.683827 -0.059824 -1.209727 -67.692411 20.126516 41.628157 66.639155 34.925320 -16.757909 -10.259682 2.985620 -0.294837 -0.834529 -0.135449
-193.240233 57.781041 -62.236379 157.095070 -6.195586 0.039290 4.575545 4.726410 0.959541 0.149619 0.177263 0.012921 0.297724 0.324396 0.006400 4.084724 4.539778 0.321837 1.002198 18.725302 -1.012513 2.123579 -1.007933 -2.125998 0.923438 8.963720 0.496041 -6.203496 -7.750950 -5.369166 18.356594 -83.936115 -0.698697 -2.445189 5.818360 -27.534346 -4.191784 9.333481 -2.139148 17.661428 -4.181110 0.452017 55.182880 -77.511498 -81.262172 -0.388389 7.029846 16.570116 -16.969252 -65.050176 11.665584 -30.249799 72.010591 -30.117386 -3.092993 -6.463235 -2.453393 -0.128209 0.683254 -0.062784 -1.218021 -67.685018 20.128009 41.631024 66.640104 34.926368 -16.758279 -10.279165 2.984815 -0.300390 -0.832723 -0.134888
-193.239839 57.781131 -62.236817 157.100160 -6.193478 0.044523 4.580341 4.728057 0.948767 0.154304 0.179173 0.011448 0.296113 0.323922 0.006882 4.093022 4.542005 0.314936 0.995132 18.723214 -1.009905 2.122079 -1.016123 -2.139331 0.912667 8.957053 0.494878 -6.202459 -7.751369 -5.378537 18.436813 -83.937294 -0.779118 -2.449662 5.817626 -27.529309 -4.187519 9.330265 -2.123228 17.734324 -4.196319 0.437739 55.474014 -77.582936 -81.429158 -0.388608 7.032488 16.595828 -16.965950 -65.053723 11.652462 -30.247696 72.014573 -30.113124 -3.080324 -6.467741 -2.451783 -0.134693 0.685417 -0.065623 -1.211816 -67.685591 20.116904 41.632379 66.640600 34.926355 -16.765664 -10.292754 2.986878 -0.300994 -0.835138 -0.135275
-193.238804 57.781076 -62.237427 157.106418 -6.192052 0.046206 4.582445 4.729073 0.942108 0.164110 0.182782 0.005833 0.280641 0.318877 0.015978 4.117930 4.557366 0.297349 0.980524 18.711303 -0.996562 2.123524 -1.018056 -2.147267 0.897168 8.940738 0.499987 -6.195711 -7.749745 -5.386969 18.316820 -83.941237 -0.669105 -2.450953 5.813834 -27.527531 -4.192030 9.320066 -2.102714 17.803337 -4.213629 0.430518 55.768154 -77.653336 -81.597895 -0.387488 7.036325 16.624214 -16.973484 -65.054737 11.654212 -30.253928 72.015807 -30.120309 -3.078216 -6.471713 -2.452042 -0.137506 0.686497 -0.066224 -1.214948 -67.685635 20.114631 41.635131 66.641090 34.926573 -16.769668 -10.306909 2.994488 -0.301211 -0.829517 -0.141145
-193.236839 57.781086 -62.239732 157.120213 -6.200846 0.044893 4.575889 4.738923 0.940108 0.164346 0.182962 0.005729 0.280845 0.321216 0.013396 4.125952 4.558463 0.293396 0.970970 18.707553 -0.988032 2.132286 -1.016980 -2.157080 0.888069 8.935277 0.502907 -6.185413 -7.748296 -5.406738 18.652872 -83.943213 -0.971622 -2.493678 5.810798 -27.557788 -4.185280 9.318193 -2.094321 17.869814 -4.228027 0.430111 56.056490 -77.717015 -81.765623 -0.382848 7.039966 16.651034 -16.982475 -65.048330 11.650169 -30.283385 72.023048 -30.146460 -3.081536 -6.474339 -2.449140 -0.137999 0.680695 -0.069603 -1.235999 -67.674669 20.127045 41.631478 66.644486 34.917151 -16.774957 -10.311818 2.995309 -0.296640 -0.832133 -0.139025
-193.235664 57.780822 -62.240714 157.121495 -6.199723 0.044463 4.577371 4.737977 0.939663 0.172210 0.184999 0.000593 0.293037 0.323742 0.008413 4.120470 4.558488 0.292849 0.970776 18.704917 -0.984349 2.127471 -1.019665 -2.150398 0.877390 8.929304 0.507676 -6.170445 -7.750779 -5.433298 18.597073 -83.944584 -0.908350 -2.473504 5.812672 -27.543003 -4.168029 9.317720 -2.077761 17.925664 -4.241714 0.429465 56.335635 -77.768140 -81.932063 -0.378645 7.043239 16.670643 -16.984461 -65.050492 11.651727 -30.298541 72.024893 -30.161368 -3.072262 -6.474105 -2.444850 -0.147214 0.679529 -0.072577 -1.238575 -67.675139 20.128592 41.637315 66.644525 34.921697 -16.764026 -10.317284 2.999660 -0.264756 -0.846916 -0.133647
-193.233982 57.780467 -62.241229 157.122174 -6.197159 0.037826 4.587321 4.737561 0.941192 0.175174 0.185056 -0.003017 0.291076 0.323523 0.009633 4.124979 4.562284 0.288647 0.974448 18.701894 -0.983101 2.121882 -1.023856 -2.140459 0.880347 8.920598 0.503492 -6.168874 -7.755605 -5.444872 18.562385 -83.941363 -0.867740 -2.463560 5.816523 -27.531436 -4.167345 9.312369 -2.061999 17.976858 -4.250264 0.430527 56.632153 -77.808625 -82.103804 -0.377546 7.046719 16.682368 -16.999349 -65.051250 11.667761 -30.306858 72.025541 -30.169076 -3.061965 -6.473797 -2.441256 -0.154668 0.678713 -0.074051 -1.250025 -67.680112 20.141544 41.677686 66.634750 34.961905 -16.769342 -10.315215 3.001211 -0.270742 -0.852247 -0.136307
-193.233529 57.780162 -62.242397 157.133560 -6.195990 0.035533 4.591318 4.738163 0.931095 0.170297 0.185508 0.001470 0.286403 0.322135 0.013194 4.129163 4.566734 0.283665 0.982584 18.700396 -0.985529 2.143946 -1.029336 -2.156127 0.879566 8.914100 0.500728 -6.160969 -7.760247 -5.466163 18.430339 -83.943097 -0.733253 -2.467483 5.818310 -27.533227 -4.162526 9.308149 -2.051176 17.985533 -4.254399 0.432375 56.966815 -77.845689 -82.281432 -0.376846 7.049816 16.687690 -17.004707 -65.050996 11.660381 -30.309260 72.028321 -30.166501 -3.053688 -6.482054 -2.437031 -0.158897 0.683424 -0.078032 -1.250618 -67.683246 20.134873 41.680078 66.631295 34.966681 -16.774771 -10.304561 3.000191 -0.263306 -0.867912 -0.127951
